<svg width="900" height="700" viewBox="0 0 900 700" fill="none" xmlns="http://www.w3.org/2000/svg">
  <defs>
    <linearGradient id="deskBg" x1="130" y1="65" x2="763" y2="647" gradientUnits="userSpaceOnUse">
      <stop stop-color="#EDF4F6"/>
      <stop offset="1" stop-color="#EEE0D3"/>
    </linearGradient>
  </defs>
  <rect width="900" height="700" rx="36" fill="url(#deskBg)"/>
  <rect x="88" y="90" width="724" height="436" rx="28" fill="white" fill-opacity="0.58"/>
  <rect x="164" y="188" width="398" height="34" rx="17" fill="#9A6A46"/>
  <rect x="164" y="222" width="398" height="16" rx="8" fill="#D7E3E7"/>
  <rect x="194" y="238" width="20" height="220" rx="10" fill="#2F3137"/>
  <rect x="512" y="238" width="20" height="220" rx="10" fill="#2F3137"/>
  <rect x="590" y="166" width="140" height="292" rx="24" fill="#4F8191"/>
  <rect x="610" y="190" width="100" height="154" rx="18" fill="#F5EFE8"/>
  <rect x="610" y="356" width="100" height="80" rx="16" fill="#D8C7B7"/>
  <rect x="626" y="220" width="68" height="12" rx="6" fill="#60707D" fill-opacity="0.28"/>
  <rect x="626" y="250" width="68" height="12" rx="6" fill="#60707D" fill-opacity="0.2"/>
  <rect x="164" y="256" width="294" height="118" rx="22" fill="#202F5B"/>
  <rect x="198" y="286" width="126" height="20" rx="10" fill="#D7E3E7"/>
  <rect x="198" y="322" width="164" height="14" rx="7" fill="#D7E3E7" fill-opacity="0.6"/>
  <rect x="118" y="146" width="92" height="14" rx="7" fill="#4F8191" fill-opacity="0.24"/>
  <rect x="228" y="146" width="132" height="14" rx="7" fill="#202F5B" fill-opacity="0.16"/>
  <circle cx="646" cy="130" r="20" fill="#202F5B"/>
  <rect x="640" y="146" width="12" height="58" rx="6" fill="#202F5B"/>
  <path d="M84 570C214 550 333 546 460 565C585 583 693 586 816 562V700H84V570Z" fill="#D6C4B2"/>
  <path d="M84 618C208 607 316 606 436 616C579 629 693 629 816 610V700H84V618Z" fill="#C1A68F"/>
</svg>
