<svg width="900" height="700" viewBox="0 0 900 700" fill="none" xmlns="http://www.w3.org/2000/svg">
  <defs>
    <linearGradient id="defaultBg" x1="102" y1="64" x2="774" y2="646" gradientUnits="userSpaceOnUse">
      <stop stop-color="#EDF4F6"/>
      <stop offset="1" stop-color="#F0E4D9"/>
    </linearGradient>
  </defs>
  <rect width="900" height="700" rx="36" fill="url(#defaultBg)"/>
  <rect x="92" y="90" width="716" height="438" rx="28" fill="white" fill-opacity="0.58"/>
  <rect x="168" y="166" width="220" height="278" rx="26" fill="#4F8191"/>
  <rect x="410" y="166" width="144" height="278" rx="26" fill="#F4EEE7"/>
  <rect x="576" y="166" width="156" height="278" rx="26" fill="#202F5B"/>
  <rect x="184" y="190" width="188" height="24" rx="12" fill="#D7E3E7"/>
  <rect x="430" y="214" width="104" height="12" rx="6" fill="#60707D" fill-opacity="0.28"/>
  <rect x="430" y="246" width="104" height="12" rx="6" fill="#60707D" fill-opacity="0.22"/>
  <rect x="602" y="310" width="104" height="18" rx="9" fill="#D7E3E7" fill-opacity="0.74"/>
  <rect x="158" y="154" width="586" height="18" rx="9" fill="#9A6A46"/>
  <path d="M92 582C216 562 334 557 452 574C577 592 690 592 808 566V700H92V582Z" fill="#D6C4B2"/>
  <path d="M92 626C216 614 334 612 448 622C581 635 692 634 808 612V700H92V626Z" fill="#BEA58F"/>
</svg>
